<svg width="596.58125px" height="126.8px" xmlns="http://www.w3.org/2000/svg" viewBox="-48.29062499999998 11.600000000000001 596.58125 126.8" style="background: rgba(253, 253, 253, 0);" preserveAspectRatio="xMidYMid"><filter id="editing-goldstamp"><feFlood flood-color="rgba(100%,100%,100%,0)" result="flood"></feFlood><feMorphology operator="dilate" radius="1" in="SourceGraphic" result="outline"></feMorphology><feComposite operator="in" in="flood" in2="outline" result="outline2"></feComposite><feGaussianBlur stdDeviation="4" in="SourceAlpha" result="blur"></feGaussianBlur><feSpecularLighting surfaceScale="2" specularConstant="0.7" specularExponent="10" lighting-color="#white" in="blur" result="specular"><fePointLight x="200" y="-1000" z="300"></fePointLight></feSpecularLighting><feComposite operator="in" in="specular" in2="SourceGraphic" result="specular2"></feComposite><feComposite in="SourceGraphic" in2="specular2" operator="arithmetic" k1="3" k2="2" k3="1" k4="0" result="specular3"></feComposite><feMerge><feMergeNode in="outline2"></feMergeNode><feMergeNode in="specular3"></feMergeNode></feMerge></filter><g filter="url(#editing-goldstamp)"><g transform="translate(38.00499725341797, 99.375)"><path d="M40.18-35.74L40.18-29.26L15.81-29.26L15.81-29.26Q14.79-29.26 13.90-28.87L13.90-28.87L13.90-28.87Q13.01-28.47 12.35-27.80L12.35-27.80L12.35-27.80Q11.68-27.14 11.30-26.25L11.30-26.25L11.30-26.25Q10.92-25.36 10.92-24.38L10.92-24.38L10.92 0L4.41 0L4.41-24.38L4.41-24.38Q4.41-26.76 5.30-28.82L5.30-28.82L5.30-28.82Q6.19-30.88 7.74-32.42L7.74-32.42L7.74-32.42Q9.30-33.96 11.36-34.85L11.36-34.85L11.36-34.85Q13.43-35.74 15.81-35.74L15.81-35.74L40.18-35.74ZM85.06-24.38L85.06 0L52.56 0L52.56 0Q50.18 0 48.12-0.89L48.12-0.89L48.12-0.89Q46.05-1.78 44.50-3.32L44.50-3.32L44.50-3.32Q42.94-4.86 42.05-6.93L42.05-6.93L42.05-6.93Q41.16-9.01 41.16-11.36L41.16-11.36L41.16-11.36Q41.16-13.74 42.05-15.81L42.05-15.81L42.05-15.81Q42.94-17.87 44.50-19.42L44.50-19.42L44.50-19.42Q46.05-20.98 48.12-21.87L48.12-21.87L48.12-21.87Q50.18-22.76 52.56-22.76L52.56-22.76L75.28-22.76L75.28-16.25L52.56-16.25L52.56-16.25Q51.54-16.25 50.65-15.85L50.65-15.85L50.65-15.85Q49.77-15.46 49.10-14.79L49.10-14.79L49.10-14.79Q48.43-14.12 48.05-13.23L48.05-13.23L48.05-13.23Q47.67-12.35 47.67-11.36L47.67-11.36L47.67-11.36Q47.67-10.35 48.05-9.47L48.05-9.47L48.05-9.47Q48.43-8.60 49.10-7.93L49.10-7.93L49.10-7.93Q49.77-7.27 50.65-6.89L50.65-6.89L50.65-6.89Q51.54-6.51 52.56-6.51L52.56-6.51L78.55-6.51L78.55-24.38L78.55-24.38Q78.55-25.36 78.16-26.25L78.16-26.25L78.16-26.25Q77.76-27.14 77.09-27.80L77.09-27.80L77.09-27.80Q76.43-28.47 75.54-28.87L75.54-28.87L75.54-28.87Q74.65-29.26 73.66-29.26L73.66-29.26L47.67-29.26L47.67-35.74L73.66-35.74L73.66-35.74Q76.04-35.74 78.11-34.85L78.11-34.85L78.11-34.85Q80.17-33.96 81.73-32.42L81.73-32.42L81.73-32.42Q83.28-30.88 84.17-28.82L84.17-28.82L84.17-28.82Q85.06-26.76 85.06-24.38L85.06-24.38ZM134.00-48.75L134.00 0L127.49 0L127.49-29.26L109.62-29.26L109.62-29.26Q107.28-29.26 105.23-28.36L105.23-28.36L105.23-28.36Q103.18-27.45 101.66-25.91L101.66-25.91L101.66-25.91Q100.13-24.38 99.26-22.30L99.26-22.30L99.26-22.30Q98.39-20.22 98.39-17.87L98.39-17.87L98.39-17.87Q98.39-15.52 99.26-13.47L99.26-13.47L99.26-13.47Q100.13-11.43 101.66-9.89L101.66-9.89L101.66-9.89Q103.18-8.35 105.23-7.44L105.23-7.44L105.23-7.44Q107.28-6.54 109.62-6.51L109.62-6.51L124.26-6.51L124.26 0L109.62 0L109.62 0Q105.94 0 102.71-1.41L102.71-1.41L102.71-1.41Q99.47-2.82 97.07-5.25L97.07-5.25L97.07-5.25Q94.68-7.68 93.28-10.93L93.28-10.93L93.28-10.93Q91.88-14.19 91.88-17.87L91.88-17.87L91.88-17.87Q91.88-21.55 93.28-24.79L93.28-24.79L93.28-24.79Q94.68-28.02 97.07-30.45L97.07-30.45L97.07-30.45Q99.47-32.88 102.71-34.29L102.71-34.29L102.71-34.29Q105.94-35.71 109.62-35.74L109.62-35.74L127.49-35.74L127.49-48.75L134.00-48.75ZM151.46-43.86L151.46-43.86L151.46-43.86Q151.46-42.85 151.07-41.97L151.07-41.97L151.07-41.97Q150.69-41.10 150.03-40.43L150.03-40.43L150.03-40.43Q149.36-39.77 148.47-39.39L148.47-39.39L148.47-39.39Q147.58-39.01 146.60-39.01L146.60-39.01L146.60-39.01Q145.58-39.01 144.69-39.39L144.69-39.39L144.69-39.39Q143.81-39.77 143.14-40.43L143.14-40.43L143.14-40.43Q142.47-41.10 142.09-41.97L142.09-41.97L142.09-41.97Q141.71-42.85 141.71-43.86L141.71-43.86L141.71-43.86Q141.71-44.85 142.09-45.73L142.09-45.73L142.09-45.73Q142.47-46.62 143.14-47.29L143.14-47.29L143.14-47.29Q143.81-47.96 144.69-48.35L144.69-48.35L144.69-48.35Q145.58-48.75 146.60-48.75L146.60-48.75L146.60-48.75Q147.58-48.75 148.47-48.35L148.47-48.35L148.47-48.35Q149.36-47.96 150.03-47.29L150.03-47.29L150.03-47.29Q150.69-46.62 151.07-45.73L151.07-45.73L151.07-45.73Q151.46-44.85 151.46-43.86ZM149.84-35.74L149.84 0L143.33 0L143.33-35.74L149.84-35.74ZM202.43-17.87L202.43-17.87L202.43-17.87Q202.43-14.19 201.03-10.95L201.03-10.95L201.03-10.95Q199.63-7.71 197.24-5.28L197.24-5.28L197.24-5.28Q194.84-2.86 191.60-1.44L191.60-1.44L191.60-1.44Q188.37-0.03 184.69 0L184.69 0L174.69 0L174.69 0Q171.01-0.03 167.77-1.44L167.77-1.44L167.77-1.44Q164.53-2.86 162.14-5.28L162.14-5.28L162.14-5.28Q159.74-7.71 158.34-10.95L158.34-10.95L158.34-10.95Q156.95-14.19 156.95-17.87L156.95-17.87L156.95-17.87Q156.95-21.55 158.34-24.80L158.34-24.80L158.34-24.80Q159.74-28.06 162.14-30.48L162.14-30.48L162.14-30.48Q164.53-32.91 167.77-34.32L167.77-34.32L167.77-34.32Q171.01-35.74 174.69-35.74L174.69-35.74L184.69-35.74L184.69-35.74Q187.13-35.74 189.41-35.10L189.41-35.10L189.41-35.10Q191.70-34.47 193.67-33.29L193.67-33.29L193.67-33.29Q195.63-32.12 197.25-30.48L197.25-30.48L197.25-30.48Q198.87-28.85 200.01-26.87L200.01-26.87L200.01-26.87Q201.16-24.88 201.79-22.60L201.79-22.60L201.79-22.60Q202.43-20.31 202.43-17.87ZM195.95-17.87L195.95-17.87L195.95-17.87Q195.95-20.22 195.06-22.28L195.06-22.28L195.06-22.28Q194.17-24.34 192.65-25.88L192.65-25.88L192.65-25.88Q191.13-27.42 189.08-28.33L189.08-28.33L189.08-28.33Q187.03-29.23 184.69-29.26L184.69-29.26L174.69-29.26L174.69-29.26Q172.34-29.23 170.29-28.33L170.29-28.33L170.29-28.33Q168.24-27.42 166.72-25.88L166.72-25.88L166.72-25.88Q165.20-24.34 164.32-22.28L164.32-22.28L164.32-22.28Q163.45-20.22 163.45-17.87L163.45-17.87L163.45-17.87Q163.45-15.52 164.32-13.46L164.32-13.46L164.32-13.46Q165.20-11.39 166.72-9.85L166.72-9.85L166.72-9.85Q168.24-8.32 170.29-7.41L170.29-7.41L170.29-7.41Q172.34-6.51 174.69-6.51L174.69-6.51L184.69-6.51L184.69-6.51Q187.03-6.51 189.08-7.41L189.08-7.41L189.08-7.41Q191.13-8.32 192.65-9.85L192.65-9.85L192.65-9.85Q194.17-11.39 195.06-13.46L195.06-13.46L195.06-13.46Q195.95-15.52 195.95-17.87ZM275.49-24.38L275.49-24.38L275.49-24.38Q275.49-21.99 274.60-19.93L274.60-19.93L274.60-19.93Q273.71-17.87 272.17-16.33L272.17-16.33L272.17-16.33Q270.63-14.79 268.55-13.90L268.55-13.90L268.55-13.90Q266.47-13.01 264.13-13.01L264.13-13.01L239.21-13.01L239.21-13.01Q239.91-11.58 240.96-10.38L240.96-10.38L240.96-10.38Q242.00-9.17 243.31-8.32L243.31-8.32L243.31-8.32Q244.61-7.46 246.15-6.98L246.15-6.98L246.15-6.98Q247.69-6.51 249.37-6.51L249.37-6.51L270.63-6.51L270.63 0L249.37 0L249.37 0Q245.69-0.03 242.45-1.44L242.45-1.44L242.45-1.44Q239.21-2.86 236.82-5.28L236.82-5.28L236.82-5.28Q234.42-7.71 233.02-10.95L233.02-10.95L233.02-10.95Q231.63-14.19 231.63-17.87L231.63-17.87L231.63-17.87Q231.63-21.55 233.02-24.79L233.02-24.79L233.02-24.79Q234.42-28.02 236.82-30.45L236.82-30.45L236.82-30.45Q239.21-32.88 242.45-34.29L242.45-34.29L242.45-34.29Q245.69-35.71 249.37-35.74L249.37-35.74L264.13-35.74L264.13-35.74Q266.47-35.74 268.55-34.85L268.55-34.85L268.55-34.85Q270.63-33.96 272.17-32.42L272.17-32.42L272.17-32.42Q273.71-30.88 274.60-28.82L274.60-28.82L274.60-28.82Q275.49-26.76 275.49-24.38ZM238.26-19.49L264.13-19.49L264.13-19.49Q265.11-19.49 266.00-19.87L266.00-19.87L266.00-19.87Q266.89-20.25 267.55-20.92L267.55-20.92L267.55-20.92Q268.22-21.58 268.60-22.47L268.60-22.47L268.60-22.47Q268.98-23.36 268.98-24.38L268.98-24.38L268.98-24.38Q268.98-25.36 268.60-26.25L268.60-26.25L268.60-26.25Q268.22-27.14 267.55-27.80L267.55-27.80L267.55-27.80Q266.89-28.47 266.00-28.87L266.00-28.87L266.00-28.87Q265.11-29.26 264.13-29.26L264.13-29.26L249.37-29.26L249.37-29.26Q247.21-29.26 245.32-28.50L245.32-28.50L245.32-28.50Q243.43-27.74 241.96-26.42L241.96-26.42L241.96-26.42Q240.48-25.10 239.51-23.31L239.51-23.31L239.51-23.31Q238.54-21.52 238.26-19.49L238.26-19.49ZM321.70-48.75L321.70 0L315.19 0L315.19-29.26L297.32-29.26L297.32-29.26Q294.98-29.26 292.93-28.36L292.93-28.36L292.93-28.36Q290.88-27.45 289.36-25.91L289.36-25.91L289.36-25.91Q287.83-24.38 286.96-22.30L286.96-22.30L286.96-22.30Q286.09-20.22 286.09-17.87L286.09-17.87L286.09-17.87Q286.09-15.52 286.96-13.47L286.96-13.47L286.96-13.47Q287.83-11.43 289.36-9.89L289.36-9.89L289.36-9.89Q290.88-8.35 292.93-7.44L292.93-7.44L292.93-7.44Q294.98-6.54 297.32-6.51L297.32-6.51L311.96-6.51L311.96 0L297.32 0L297.32 0Q293.64 0 290.41-1.41L290.41-1.41L290.41-1.41Q287.17-2.82 284.77-5.25L284.77-5.25L284.77-5.25Q282.38-7.68 280.98-10.93L280.98-10.93L280.98-10.93Q279.58-14.19 279.58-17.87L279.58-17.87L279.58-17.87Q279.58-21.55 280.98-24.79L280.98-24.79L280.98-24.79Q282.38-28.02 284.77-30.45L284.77-30.45L284.77-30.45Q287.17-32.88 290.41-34.29L290.41-34.29L290.41-34.29Q293.64-35.71 297.32-35.74L297.32-35.74L315.19-35.74L315.19-48.75L321.70-48.75ZM372.64-24.38L372.64-24.38L372.64-24.38Q372.64-21.99 371.75-19.93L371.75-19.93L371.75-19.93Q370.86-17.87 369.32-16.33L369.32-16.33L369.32-16.33Q367.78-14.79 365.70-13.90L365.70-13.90L365.70-13.90Q363.63-13.01 361.28-13.01L361.28-13.01L336.36-13.01L336.36-13.01Q337.06-11.58 338.11-10.38L338.11-10.38L338.11-10.38Q339.16-9.17 340.46-8.32L340.46-8.32L340.46-8.32Q341.76-7.46 343.30-6.98L343.30-6.98L343.30-6.98Q344.84-6.51 346.52-6.51L346.52-6.51L367.78-6.51L367.78 0L346.52 0L346.52 0Q342.84-0.03 339.60-1.44L339.60-1.44L339.60-1.44Q336.36-2.86 333.97-5.28L333.97-5.28L333.97-5.28Q331.57-7.71 330.17-10.95L330.17-10.95L330.17-10.95Q328.78-14.19 328.78-17.87L328.78-17.87L328.78-17.87Q328.78-21.55 330.17-24.79L330.17-24.79L330.17-24.79Q331.57-28.02 333.97-30.45L333.97-30.45L333.97-30.45Q336.36-32.88 339.60-34.29L339.60-34.29L339.60-34.29Q342.84-35.71 346.52-35.74L346.52-35.74L361.28-35.74L361.28-35.74Q363.63-35.74 365.70-34.85L365.70-34.85L365.70-34.85Q367.78-33.96 369.32-32.42L369.32-32.42L369.32-32.42Q370.86-30.88 371.75-28.82L371.75-28.82L371.75-28.82Q372.64-26.76 372.64-24.38ZM335.41-19.49L361.28-19.49L361.28-19.49Q362.26-19.49 363.15-19.87L363.15-19.87L363.15-19.87Q364.04-20.25 364.70-20.92L364.70-20.92L364.70-20.92Q365.37-21.58 365.75-22.47L365.75-22.47L365.75-22.47Q366.13-23.36 366.13-24.38L366.13-24.38L366.13-24.38Q366.13-25.36 365.75-26.25L365.75-26.25L365.75-26.25Q365.37-27.14 364.70-27.80L364.70-27.80L364.70-27.80Q364.04-28.47 363.15-28.87L363.15-28.87L363.15-28.87Q362.26-29.26 361.28-29.26L361.28-29.26L346.52-29.26L346.52-29.26Q344.36-29.26 342.47-28.50L342.47-28.50L342.47-28.50Q340.58-27.74 339.11-26.42L339.11-26.42L339.11-26.42Q337.63-25.10 336.66-23.31L336.66-23.31L336.66-23.31Q335.70-21.52 335.41-19.49L335.41-19.49ZM419.58-24.38L419.58 0L387.08 0L387.08 0Q384.70 0 382.64-0.89L382.64-0.89L382.64-0.89Q380.57-1.78 379.02-3.32L379.02-3.32L379.02-3.32Q377.46-4.86 376.57-6.93L376.57-6.93L376.57-6.93Q375.69-9.01 375.69-11.36L375.69-11.36L375.69-11.36Q375.69-13.74 376.57-15.81L376.57-15.81L376.57-15.81Q377.46-17.87 379.02-19.42L379.02-19.42L379.02-19.42Q380.57-20.98 382.64-21.87L382.64-21.87L382.64-21.87Q384.70-22.76 387.08-22.76L387.08-22.76L409.80-22.76L409.80-16.25L387.08-16.25L387.08-16.25Q386.06-16.25 385.18-15.85L385.18-15.85L385.18-15.85Q384.29-15.46 383.62-14.79L383.62-14.79L383.62-14.79Q382.95-14.12 382.57-13.23L382.57-13.23L382.57-13.23Q382.19-12.35 382.19-11.36L382.19-11.36L382.19-11.36Q382.19-10.35 382.57-9.47L382.57-9.47L382.57-9.47Q382.95-8.60 383.62-7.93L383.62-7.93L383.62-7.93Q384.29-7.27 385.18-6.89L385.18-6.89L385.18-6.89Q386.06-6.51 387.08-6.51L387.08-6.51L413.07-6.51L413.07-24.38L413.07-24.38Q413.07-25.36 412.68-26.25L412.68-26.25L412.68-26.25Q412.28-27.14 411.61-27.80L411.61-27.80L411.61-27.80Q410.95-28.47 410.06-28.87L410.06-28.87L410.06-28.87Q409.17-29.26 408.19-29.26L408.19-29.26L382.19-29.26L382.19-35.74L408.19-35.74L408.19-35.74Q410.57-35.74 412.63-34.85L412.63-34.85L412.63-34.85Q414.69-33.96 416.25-32.42L416.25-32.42L416.25-32.42Q417.80-30.88 418.69-28.82L418.69-28.82L418.69-28.82Q419.58-26.76 419.58-24.38L419.58-24.38Z" fill="#4aa121"></path></g></g><style>text {
  font-size: 64px;
  font-family: Arial Black;
  dominant-baseline: central;
  text-anchor: middle;
}</style></svg>